<svg width="508" height="96" viewBox="0 0 508 96" fill="none" xmlns="http://www.w3.org/2000/svg">
<rect width="508" height="96" fill="#E61725"/>
<path d="M84.2988 80.9762C84.2988 81.7199 84.2067 82.446 84.0226 83.1543C83.8455 83.8555 83.5692 84.4789 83.1938 85.0243C82.8255 85.5626 82.358 85.9982 81.7913 86.3312C81.2247 86.657 80.5517 86.8199 79.7726 86.8199C79.0359 86.8199 78.3665 86.6712 77.7644 86.3737C77.1694 86.0691 76.6701 85.6335 76.2663 85.0668L76.2132 86.6074H75.0232V70.2874H76.2982V76.7155C76.6878 76.1418 77.173 75.6955 77.7538 75.3768C78.3417 75.058 79.0076 74.8987 79.7513 74.8987C80.5376 74.8987 81.2176 75.0616 81.7913 75.3874C82.3651 75.7062 82.8361 76.1382 83.2044 76.6837C83.5728 77.222 83.8455 77.8453 84.0226 78.5537C84.2067 79.2549 84.2988 79.988 84.2988 80.753V80.9762ZM83.0132 80.753C83.0132 80.1793 82.953 79.6091 82.8326 79.0424C82.7121 78.4757 82.5174 77.9693 82.2482 77.523C81.979 77.0697 81.6178 76.7049 81.1644 76.4287C80.7182 76.1453 80.1657 76.0037 79.5069 76.0037C79.1244 76.0037 78.7667 76.0603 78.4338 76.1737C78.1009 76.287 77.7963 76.4428 77.5201 76.6412C77.2509 76.8395 77.0136 77.0803 76.8082 77.3637C76.6028 77.6399 76.4328 77.941 76.2982 78.2668V83.6324C76.4399 83.9441 76.6169 84.231 76.8294 84.493C77.049 84.748 77.2969 84.9676 77.5732 85.1518C77.8565 85.3289 78.1611 85.467 78.4869 85.5662C78.8199 85.6653 79.1669 85.7149 79.5282 85.7149C80.1728 85.7149 80.7147 85.5768 81.1538 85.3005C81.6001 85.0243 81.9578 84.663 82.2269 84.2168C82.5032 83.7635 82.7015 83.2535 82.8219 82.6868C82.9494 82.1201 83.0132 81.5499 83.0132 80.9762V80.753Z" fill="#FCFCFC"/>
<path d="M102.712 86.6074C102.634 86.3737 102.574 86.1151 102.531 85.8318C102.489 85.5414 102.46 85.2474 102.446 84.9499C102.227 85.2191 101.972 85.467 101.681 85.6937C101.391 85.9203 101.072 86.1187 100.725 86.2887C100.385 86.4516 100.017 86.5791 99.6201 86.6712C99.2234 86.7703 98.809 86.8199 98.3769 86.8199C97.8386 86.8199 97.3357 86.742 96.8682 86.5862C96.4078 86.4303 96.004 86.2107 95.6569 85.9274C95.3169 85.6441 95.0478 85.3041 94.8494 84.9074C94.6582 84.5037 94.5626 84.0539 94.5626 83.558C94.5626 82.8993 94.7078 82.3397 94.9982 81.8793C95.2886 81.4189 95.6817 81.047 96.1776 80.7637C96.6734 80.4732 97.2471 80.2607 97.8988 80.1262C98.5505 79.9916 99.234 79.9243 99.9494 79.9243H102.436V78.6174C102.429 78.1853 102.344 77.8064 102.181 77.4805C102.018 77.1476 101.795 76.8714 101.511 76.6518C101.235 76.4251 100.902 76.2551 100.513 76.1418C100.13 76.0284 99.7121 75.9718 99.2588 75.9718C98.848 75.9718 98.4549 76.0249 98.0794 76.1312C97.7111 76.2374 97.3817 76.3897 97.0913 76.588C96.808 76.7864 96.5778 77.0307 96.4007 77.3212C96.2236 77.6045 96.128 77.9268 96.1138 78.288L94.8388 78.2774C94.8601 77.7887 94.9876 77.3389 95.2213 76.928C95.4621 76.5172 95.7844 76.163 96.1882 75.8655C96.5919 75.5609 97.0594 75.3237 97.5907 75.1537C98.129 74.9837 98.7028 74.8987 99.3119 74.8987C99.9211 74.8987 100.491 74.9766 101.023 75.1324C101.561 75.2882 102.025 75.522 102.414 75.8337C102.811 76.1453 103.123 76.5349 103.349 77.0024C103.583 77.4699 103.704 78.0153 103.711 78.6387V84.2062C103.711 84.5887 103.743 84.9747 103.806 85.3643C103.877 85.7539 103.962 86.1257 104.061 86.4799L104.072 86.6074H102.712ZM98.5151 85.6937C98.9613 85.7007 99.3863 85.6476 99.7901 85.5343C100.201 85.4209 100.576 85.2651 100.916 85.0668C101.256 84.8614 101.557 84.6205 101.819 84.3443C102.082 84.0609 102.287 83.7528 102.436 83.4199V80.9018H100.119C99.5599 80.9018 99.0215 80.9443 98.5044 81.0293C97.9874 81.1143 97.5305 81.2559 97.1338 81.4543C96.7371 81.6455 96.4184 81.9041 96.1776 82.2299C95.9438 82.5557 95.8269 82.963 95.8269 83.4518C95.8269 83.7989 95.8978 84.1105 96.0394 84.3868C96.1811 84.663 96.3724 84.9003 96.6132 85.0987C96.854 85.2899 97.1374 85.4387 97.4632 85.5449C97.789 85.6441 98.1396 85.6937 98.5151 85.6937Z" fill="#FCFCFC"/>
<path d="M117.81 80.7955L116.184 82.2512V86.6074H114.899V70.2874H116.184V80.7849L117.555 79.4355L122.219 75.1112H123.845L118.713 79.9562L124.376 86.6074H122.74L117.81 80.7955Z" fill="#FCFCFC"/>
<path d="M134.799 75.1112H140.133V85.4812H144.043V86.6074H134.799V85.4812H138.858V76.248H134.799V75.1112ZM138.486 71.9662C138.486 71.7041 138.561 71.4774 138.709 71.2862C138.858 71.0949 139.106 70.9993 139.453 70.9993C139.793 70.9993 140.038 71.0949 140.186 71.2862C140.342 71.4774 140.42 71.7041 140.42 71.9662C140.42 72.2141 140.342 72.4337 140.186 72.6249C140.038 72.8091 139.793 72.9012 139.453 72.9012C139.106 72.9012 138.858 72.8091 138.709 72.6249C138.561 72.4337 138.486 72.2141 138.486 71.9662Z" fill="#FCFCFC"/>
<path d="M155.518 75.1112L155.614 77.268C156.018 76.5526 156.556 75.9824 157.229 75.5574C157.902 75.1253 158.667 74.9057 159.524 74.8987C160.785 74.8987 161.748 75.2776 162.414 76.0355C163.08 76.7864 163.416 77.8559 163.423 79.2443V86.6074H162.148V79.2655C162.141 78.2101 161.9 77.4026 161.426 76.843C160.951 76.2764 160.214 75.9966 159.216 76.0037C158.805 76.0037 158.412 76.0709 158.036 76.2055C157.668 76.3401 157.328 76.5243 157.016 76.758C156.712 76.9918 156.439 77.268 156.198 77.5868C155.964 77.9055 155.773 78.2526 155.624 78.628V86.6074H154.349V75.1112H155.518Z" fill="#FCFCFC"/>
<path d="M173.836 80.753C173.836 79.988 173.928 79.2549 174.112 78.5537C174.296 77.8453 174.576 77.222 174.951 76.6837C175.334 76.1382 175.808 75.7062 176.375 75.3874C176.949 75.0616 177.625 74.8987 178.404 74.8987C179.141 74.8987 179.8 75.058 180.381 75.3768C180.969 75.6884 181.457 76.1312 181.847 76.7049L181.9 75.1112H183.09V86.4055C183.083 87.1068 182.973 87.7514 182.761 88.3393C182.548 88.9272 182.24 89.4301 181.836 89.848C181.44 90.273 180.958 90.6024 180.391 90.8361C179.825 91.0699 179.187 91.1868 178.479 91.1868C178.139 91.1868 177.785 91.1478 177.416 91.0699C177.048 90.992 176.687 90.8716 176.333 90.7086C175.978 90.5457 175.638 90.3403 175.313 90.0924C174.994 89.8516 174.714 89.5611 174.473 89.2212L175.185 88.4562C176.099 89.5611 177.168 90.1136 178.394 90.1136C178.939 90.1136 179.424 90.0251 179.849 89.848C180.274 89.6709 180.629 89.4195 180.912 89.0937C181.202 88.7749 181.422 88.3889 181.571 87.9355C181.727 87.4893 181.808 86.997 181.815 86.4587V85.1518C181.411 85.6901 180.915 86.1045 180.328 86.3949C179.747 86.6782 179.099 86.8199 178.383 86.8199C177.618 86.8199 176.949 86.657 176.375 86.3312C175.808 85.9982 175.337 85.5626 174.962 85.0243C174.587 84.4789 174.303 83.8555 174.112 83.1543C173.928 82.4459 173.836 81.7199 173.836 80.9762V80.753ZM175.111 80.9762C175.111 81.5499 175.171 82.1201 175.291 82.6868C175.419 83.2534 175.621 83.7634 175.897 84.2168C176.173 84.663 176.534 85.0243 176.981 85.3005C177.427 85.5768 177.972 85.7149 178.617 85.7149C178.978 85.7149 179.322 85.6689 179.648 85.5768C179.973 85.4776 180.271 85.3395 180.54 85.1624C180.816 84.9853 181.061 84.7728 181.273 84.5249C181.493 84.2699 181.673 83.9866 181.815 83.6749V78.203C181.673 77.8843 181.5 77.5903 181.294 77.3212C181.089 77.052 180.852 76.8218 180.583 76.6305C180.313 76.4322 180.016 76.2799 179.69 76.1737C179.364 76.0603 179.014 76.0037 178.638 76.0037C177.987 76.0037 177.438 76.1453 176.991 76.4287C176.545 76.7049 176.18 77.0697 175.897 77.523C175.621 77.9693 175.419 78.4757 175.291 79.0424C175.171 79.6091 175.111 80.1793 175.111 80.753V80.9762Z" fill="#FCFCFC"/>
<path d="M215.114 83.6855C215.114 83.3314 215.025 83.0232 214.848 82.7612C214.671 82.4991 214.427 82.2759 214.115 82.0918C213.81 81.9005 213.456 81.7412 213.053 81.6137C212.649 81.4862 212.22 81.3764 211.767 81.2843C211.214 81.1709 210.68 81.0364 210.163 80.8805C209.645 80.7176 209.185 80.5122 208.781 80.2643C208.378 80.0164 208.055 79.7153 207.814 79.3612C207.574 78.9999 207.453 78.5572 207.453 78.033C207.453 77.5372 207.577 77.0945 207.825 76.7049C208.073 76.3153 208.399 75.9859 208.803 75.7168C209.206 75.4476 209.667 75.2457 210.184 75.1112C210.701 74.9695 211.232 74.8987 211.778 74.8987C212.401 74.8987 212.982 74.9766 213.52 75.1324C214.065 75.2812 214.54 75.5043 214.944 75.8018C215.355 76.0922 215.68 76.4499 215.921 76.8749C216.162 77.2999 216.293 77.7851 216.314 78.3305H215.039C215.025 77.9622 214.926 77.6328 214.742 77.3424C214.558 77.0449 214.313 76.797 214.009 76.5987C213.704 76.4003 213.357 76.248 212.968 76.1418C212.585 76.0355 212.188 75.9824 211.778 75.9824C211.395 75.9824 211.02 76.0249 210.651 76.1099C210.29 76.1878 209.964 76.3118 209.674 76.4818C209.39 76.6447 209.16 76.8537 208.983 77.1087C208.813 77.3566 208.728 77.6505 208.728 77.9905C208.721 78.3518 208.803 78.6564 208.973 78.9043C209.15 79.1451 209.387 79.3505 209.684 79.5205C209.982 79.6834 210.329 79.8216 210.726 79.9349C211.129 80.0412 211.558 80.1403 212.011 80.2324C212.592 80.3528 213.145 80.5016 213.669 80.6787C214.2 80.8487 214.668 81.0647 215.071 81.3268C215.475 81.5818 215.794 81.897 216.028 82.2724C216.261 82.6478 216.378 83.0976 216.378 83.6218C216.378 84.1601 216.247 84.6312 215.985 85.0349C215.73 85.4316 215.39 85.7645 214.965 86.0337C214.547 86.2957 214.065 86.4905 213.52 86.618C212.982 86.7526 212.426 86.8199 211.852 86.8199C211.207 86.8199 210.598 86.742 210.024 86.5862C209.458 86.4303 208.955 86.2072 208.516 85.9168C208.084 85.6193 207.737 85.258 207.474 84.833C207.212 84.408 207.071 83.9264 207.049 83.388H208.324C208.367 83.8414 208.501 84.2203 208.728 84.5249C208.962 84.8295 209.245 85.0739 209.578 85.258C209.918 85.4351 210.287 85.5626 210.683 85.6405C211.08 85.7114 211.469 85.7468 211.852 85.7468C212.242 85.7468 212.628 85.7078 213.01 85.6299C213.4 85.5449 213.747 85.4209 214.051 85.258C214.363 85.088 214.614 84.8755 214.806 84.6205C215.004 84.3584 215.107 84.0468 215.114 83.6855Z" fill="#FCFCFC"/>
<path d="M228.331 82.878L228.671 84.918L229.096 82.878L231.041 75.1111H231.933L233.878 82.878L234.303 84.9711L234.674 82.878L236.247 75.1111H237.426L234.876 86.6074H233.846L231.816 78.7449L231.476 76.9068L231.136 78.7449L229.128 86.6074H228.098L225.548 75.1111H226.727L228.331 82.878Z" fill="#FCFCFC"/>
<path d="M251.696 86.8199C250.895 86.8199 250.166 86.6712 249.507 86.3737C248.848 86.0762 248.282 85.6724 247.807 85.1624C247.339 84.6524 246.975 84.0574 246.713 83.3774C246.458 82.6903 246.327 81.9607 246.319 81.1887V80.7318C246.327 79.9101 246.461 79.1451 246.723 78.4368C246.992 77.7284 247.357 77.1122 247.818 76.588C248.278 76.0639 248.82 75.653 249.443 75.3555C250.067 75.0509 250.736 74.8987 251.451 74.8987C252.216 74.8987 252.893 75.0368 253.481 75.313C254.069 75.5893 254.561 75.9682 254.958 76.4499C255.361 76.9245 255.666 77.4805 255.871 78.118C256.084 78.7555 256.194 79.4391 256.201 80.1687V80.9443H247.594V81.1887C247.602 81.7907 247.704 82.368 247.903 82.9205C248.101 83.4659 248.381 83.9476 248.742 84.3655C249.103 84.7834 249.539 85.1199 250.049 85.3749C250.559 85.6228 251.125 85.7468 251.749 85.7468C252.457 85.7539 253.098 85.6228 253.672 85.3537C254.246 85.0845 254.734 84.6949 255.138 84.1849L255.946 84.7905C255.733 85.088 255.482 85.3643 255.191 85.6193C254.901 85.8672 254.575 86.0797 254.214 86.2568C253.86 86.4339 253.47 86.572 253.045 86.6712C252.62 86.7703 252.17 86.8199 251.696 86.8199ZM251.451 75.9824C250.934 75.9824 250.46 76.0816 250.028 76.2799C249.595 76.4712 249.217 76.7403 248.891 77.0874C248.565 77.4345 248.296 77.8453 248.083 78.3199C247.871 78.7874 247.725 79.3009 247.648 79.8605H254.926V79.7224C254.912 79.2478 254.823 78.7874 254.66 78.3412C254.504 77.8878 254.278 77.4876 253.98 77.1405C253.69 76.7934 253.332 76.5137 252.907 76.3012C252.482 76.0887 251.997 75.9824 251.451 75.9824Z" fill="#FCFCFC"/>
<path d="M271.543 86.8199C270.743 86.8199 270.013 86.6712 269.354 86.3737C268.696 86.0762 268.129 85.6724 267.654 85.1624C267.187 84.6524 266.822 84.0574 266.56 83.3774C266.305 82.6903 266.174 81.9607 266.167 81.1887V80.7318C266.174 79.9101 266.309 79.1451 266.571 78.4368C266.84 77.7284 267.205 77.1122 267.665 76.588C268.125 76.0639 268.667 75.653 269.291 75.3555C269.914 75.0509 270.583 74.8987 271.299 74.8987C272.064 74.8987 272.74 75.0368 273.328 75.313C273.916 75.5893 274.408 75.9682 274.805 76.4499C275.209 76.9245 275.513 77.4805 275.719 78.118C275.931 78.7555 276.041 79.4391 276.048 80.1687V80.9443H267.442V81.1887C267.449 81.7907 267.552 82.368 267.75 82.9205C267.948 83.4659 268.228 83.9476 268.589 84.3655C268.951 84.7834 269.386 85.1199 269.896 85.3749C270.406 85.6228 270.973 85.7468 271.596 85.7468C272.305 85.7539 272.946 85.6228 273.519 85.3537C274.093 85.0845 274.582 84.6949 274.986 84.1849L275.793 84.7905C275.581 85.088 275.329 85.3643 275.039 85.6193C274.748 85.8672 274.423 86.0797 274.061 86.2568C273.707 86.4339 273.318 86.572 272.893 86.6712C272.468 86.7703 272.018 86.8199 271.543 86.8199ZM271.299 75.9824C270.782 75.9824 270.307 76.0816 269.875 76.2799C269.443 76.4712 269.064 76.7403 268.738 77.0874C268.412 77.4345 268.143 77.8453 267.931 78.3199C267.718 78.7874 267.573 79.3009 267.495 79.8605H274.773V79.7224C274.759 79.2478 274.67 78.7874 274.508 78.3412C274.352 77.8878 274.125 77.4876 273.828 77.1405C273.537 76.7934 273.179 76.5137 272.754 76.3012C272.329 76.0887 271.844 75.9824 271.299 75.9824Z" fill="#FCFCFC"/>
<path d="M290.721 72.168V75.1112H294.982V76.1524H290.721V83.388C290.728 83.8343 290.796 84.2062 290.923 84.5037C291.058 84.7941 291.235 85.0314 291.454 85.2155C291.681 85.3926 291.943 85.5201 292.241 85.598C292.545 85.6759 292.875 85.7149 293.229 85.7149C293.583 85.7149 293.944 85.6901 294.313 85.6405C294.688 85.5909 295.007 85.5414 295.269 85.4918L295.46 86.4587C295.155 86.5791 294.784 86.6676 294.344 86.7243C293.905 86.788 293.459 86.8199 293.006 86.8199C292.496 86.8199 292.025 86.7562 291.593 86.6287C291.16 86.5082 290.785 86.3134 290.466 86.0443C290.148 85.768 289.896 85.4139 289.712 84.9818C289.528 84.5426 289.432 84.0078 289.425 83.3774V76.1524H286.227V75.1112H289.425V72.168H290.721Z" fill="#FCFCFC"/>
<path d="M320.535 79.6374L328.196 82.8249V84.1636L319.09 80.1368V79.1168L328.196 75.1005V76.4286L320.535 79.6374Z" fill="#FCFCFC"/>
<path d="M343.889 85.7468C344.314 85.7468 344.718 85.6866 345.1 85.5662C345.49 85.4387 345.833 85.258 346.131 85.0243C346.428 84.7905 346.669 84.5107 346.853 84.1849C347.044 83.852 347.154 83.4766 347.183 83.0587H348.404C348.376 83.6041 348.234 84.107 347.979 84.5674C347.724 85.0278 347.392 85.4245 346.981 85.7574C346.57 86.0903 346.099 86.3524 345.568 86.5437C345.036 86.7278 344.477 86.8199 343.889 86.8199C343.046 86.8199 342.313 86.6605 341.689 86.3418C341.066 86.023 340.545 85.598 340.128 85.0668C339.717 84.5355 339.405 83.9264 339.193 83.2393C338.987 82.5451 338.884 81.8262 338.884 81.0824V80.6362C338.884 79.8924 338.987 79.177 339.193 78.4899C339.405 77.7957 339.717 77.183 340.128 76.6518C340.545 76.1205 341.066 75.6955 341.689 75.3768C342.313 75.058 343.042 74.8987 343.878 74.8987C344.516 74.8987 345.104 75.0014 345.642 75.2068C346.187 75.4051 346.658 75.6884 347.055 76.0568C347.459 76.418 347.778 76.8501 348.011 77.353C348.245 77.8489 348.376 78.3943 348.404 78.9893H347.183C347.161 78.5572 347.062 78.157 346.885 77.7887C346.708 77.4203 346.474 77.1016 346.184 76.8324C345.893 76.5632 345.55 76.3543 345.153 76.2055C344.764 76.0568 344.339 75.9824 343.878 75.9824C343.212 75.9824 342.642 76.117 342.168 76.3862C341.7 76.6553 341.318 77.0095 341.02 77.4487C340.723 77.8878 340.503 78.3872 340.361 78.9468C340.227 79.4993 340.159 80.0624 340.159 80.6362V81.0824C340.159 81.6632 340.227 82.2334 340.361 82.793C340.503 83.3526 340.723 83.852 341.02 84.2912C341.318 84.7232 341.7 85.0739 342.168 85.343C342.642 85.6122 343.216 85.7468 343.889 85.7468Z" fill="#FCFCFC"/>
<path d="M358.413 80.6893C358.42 79.9101 358.541 79.1699 358.774 78.4687C359.008 77.7674 359.341 77.1547 359.773 76.6305C360.212 76.0993 360.747 75.6778 361.378 75.3662C362.015 75.0545 362.734 74.8987 363.534 74.8987C364.342 74.8987 365.061 75.0545 365.691 75.3662C366.329 75.6778 366.867 76.0993 367.306 76.6305C367.745 77.1547 368.082 77.7674 368.316 78.4687C368.549 79.1699 368.67 79.9101 368.677 80.6893V81.0399C368.67 81.8191 368.549 82.5593 368.316 83.2605C368.089 83.9618 367.756 84.578 367.317 85.1093C366.878 85.6334 366.343 86.0514 365.713 86.363C365.082 86.6676 364.363 86.8199 363.556 86.8199C362.748 86.8199 362.026 86.6676 361.388 86.363C360.758 86.0514 360.223 85.6334 359.784 85.1093C359.345 84.578 359.008 83.9618 358.774 83.2605C358.541 82.5593 358.42 81.8191 358.413 81.0399V80.6893ZM359.688 81.0399C359.688 81.6491 359.773 82.237 359.943 82.8037C360.113 83.3703 360.361 83.8732 360.687 84.3124C361.013 84.7445 361.413 85.0916 361.888 85.3537C362.369 85.6157 362.925 85.7468 363.556 85.7468C364.179 85.7468 364.728 85.6157 365.203 85.3537C365.684 85.0916 366.084 84.7445 366.403 84.3124C366.729 83.8732 366.977 83.3703 367.147 82.8037C367.317 82.237 367.402 81.6491 367.402 81.0399V80.6893C367.402 80.0872 367.317 79.5028 367.147 78.9362C366.977 78.3695 366.729 77.8701 366.403 77.438C366.077 76.9989 365.674 76.6482 365.192 76.3862C364.71 76.117 364.158 75.9824 363.534 75.9824C362.911 75.9824 362.359 76.117 361.877 76.3862C361.402 76.6482 361.002 76.9989 360.676 77.438C360.358 77.8701 360.113 78.3695 359.943 78.9362C359.773 79.5028 359.688 80.0872 359.688 80.6893V81.0399Z" fill="#FCFCFC"/>
<path d="M378.537 80.753C378.537 79.988 378.633 79.2549 378.824 78.5537C379.015 77.8453 379.298 77.222 379.674 76.6837C380.056 76.1382 380.531 75.7062 381.098 75.3874C381.671 75.0616 382.344 74.8987 383.116 74.8987C383.846 74.8987 384.498 75.0545 385.071 75.3662C385.652 75.6778 386.137 76.1135 386.527 76.673V70.2874H387.791V86.6074H386.601L386.548 85.1093C386.144 85.6618 385.649 86.0868 385.061 86.3843C384.473 86.6747 383.818 86.8199 383.095 86.8199C382.337 86.8199 381.671 86.657 381.098 86.3312C380.531 85.9982 380.056 85.5626 379.674 85.0243C379.298 84.4789 379.015 83.8555 378.824 83.1543C378.633 82.446 378.537 81.7199 378.537 80.9762V80.753ZM379.823 80.9762C379.823 81.5499 379.883 82.1201 380.003 82.6868C380.131 83.2535 380.333 83.7635 380.609 84.2168C380.885 84.663 381.246 85.0243 381.693 85.3005C382.139 85.5768 382.684 85.7149 383.329 85.7149C383.69 85.7149 384.03 85.6689 384.349 85.5768C384.675 85.4847 384.972 85.3537 385.241 85.1837C385.518 85.0066 385.762 84.7976 385.974 84.5568C386.194 84.3089 386.378 84.0326 386.527 83.728V78.1605C386.385 77.8418 386.208 77.5514 385.996 77.2893C385.79 77.0272 385.553 76.8005 385.284 76.6093C385.015 76.418 384.717 76.2693 384.391 76.163C384.065 76.0568 383.718 76.0037 383.35 76.0037C382.698 76.0037 382.149 76.1453 381.703 76.4287C381.257 76.7049 380.892 77.0697 380.609 77.523C380.333 77.9693 380.131 78.4757 380.003 79.0424C379.883 79.6091 379.823 80.1793 379.823 80.753V80.9762Z" fill="#FCFCFC"/>
<path d="M403.676 86.8199C402.875 86.8199 402.146 86.6712 401.487 86.3737C400.828 86.0762 400.262 85.6724 399.787 85.1624C399.319 84.6524 398.955 84.0574 398.693 83.3774C398.438 82.6903 398.307 81.9607 398.299 81.1887V80.7318C398.307 79.9101 398.441 79.1451 398.703 78.4368C398.972 77.7284 399.337 77.1122 399.798 76.588C400.258 76.0639 400.8 75.653 401.423 75.3555C402.047 75.0509 402.716 74.8987 403.431 74.8987C404.196 74.8987 404.873 75.0368 405.461 75.313C406.049 75.5893 406.541 75.9682 406.938 76.4499C407.341 76.9245 407.646 77.4805 407.851 78.118C408.064 78.7555 408.174 79.4391 408.181 80.1687V80.9443H399.574V81.1887C399.582 81.7907 399.684 82.368 399.883 82.9205C400.081 83.4659 400.361 83.9476 400.722 84.3655C401.083 84.7834 401.519 85.1199 402.029 85.3749C402.539 85.6228 403.105 85.7468 403.729 85.7468C404.437 85.7539 405.078 85.6228 405.652 85.3537C406.226 85.0845 406.714 84.6949 407.118 84.1849L407.926 84.7905C407.713 85.088 407.462 85.3643 407.171 85.6193C406.881 85.8672 406.555 86.0797 406.194 86.2568C405.84 86.4339 405.45 86.572 405.025 86.6712C404.6 86.7703 404.15 86.8199 403.676 86.8199ZM403.431 75.9824C402.914 75.9824 402.44 76.0816 402.008 76.2799C401.575 76.4712 401.197 76.7403 400.871 77.0874C400.545 77.4345 400.276 77.8453 400.063 78.3199C399.851 78.7874 399.705 79.3009 399.628 79.8605H406.906V79.7224C406.892 79.2478 406.803 78.7874 406.64 78.3412C406.484 77.8878 406.258 77.4876 405.96 77.1405C405.67 76.7934 405.312 76.5137 404.887 76.3012C404.462 76.0887 403.977 75.9824 403.431 75.9824Z" fill="#FCFCFC"/>
<path d="M426.318 79.5949L418.508 76.3862V75.0793L427.794 79.0955V80.1155L418.508 84.1424V82.8355L426.318 79.5949Z" fill="#FCFCFC"/>
<path d="M106.008 15.1278C102.732 12.3759 98.2113 11 92.4455 11H76V14.0139H92.4455C97.294 14.0139 101.029 15.1278 103.649 17.2899C106.205 19.4521 107.515 22.5315 107.515 26.4627C107.515 30.4594 106.205 33.5389 103.649 35.6355C101.029 37.7977 97.294 38.846 92.4455 38.846H76V56.864H79.3415V41.8599H92.4455C98.2113 41.8599 102.732 40.5495 106.008 37.7977C109.284 35.0458 110.922 31.3112 110.922 26.4627C110.922 21.6798 109.284 17.8796 106.008 15.1278V15.1278Z" fill="#FCFCFC"/>
<path d="M151.877 32.0974H122.197V35.0458H151.877V32.0974ZM151.877 11H122.197V14.0139H151.877V11ZM122.197 53.8501V56.864H151.877V53.8501H122.197Z" fill="#FCFCFC"/>
<path d="M203.436 11H200.095V50.8362L168.907 11H166.09V56.864H169.432V17.0278L200.685 56.864H203.436V11Z" fill="#FCFCFC"/>
<path d="M271.07 37.077C269.367 35.1114 266.877 33.8665 263.601 33.2113C265.894 32.4906 267.794 31.1802 269.17 29.3456C270.546 27.5766 271.267 25.4144 271.267 22.7281C271.267 18.9934 269.826 16.1106 267.074 14.0794C264.322 12.0483 260.456 11 255.477 11H236.345V13.8829H255.346C259.342 13.8829 262.422 14.6691 264.584 16.2416C266.746 17.8141 267.86 20.0418 267.86 22.9902C267.86 26.0041 266.746 28.2973 264.584 29.8698C262.422 31.4422 259.342 32.163 255.346 32.163H236.345V35.0458H256.787C261.177 35.0458 264.584 35.8321 266.877 37.339C269.17 38.9115 270.35 41.2702 270.35 44.4807C270.35 47.7567 269.17 50.1154 266.877 51.6879C264.584 53.2604 261.242 53.9811 256.787 53.9811H236.345V56.864H256.787C262.356 56.864 266.55 55.8157 269.432 53.719C272.25 51.6224 273.691 48.674 273.691 44.7428C273.691 41.6634 272.774 39.1081 271.07 37.077Z" fill="#FCFCFC"/>
<path d="M302.386 11H299.044L277.947 56.864H281.551L300.682 14.6691L319.88 56.864H323.483L302.386 11Z" fill="#FCFCFC"/>
<path d="M345.438 34.2596L365.159 56.864H369.221L347.665 31.8354L367.845 11H363.783L335.151 40.484V11H331.81V56.864H335.151V44.8083L345.438 34.2596Z" fill="#FCFCFC"/>
<path d="M407.559 32.0974H377.878V35.0458H407.559V32.0974ZM407.559 11H377.878V14.0139H407.559V11ZM377.878 53.8501V56.864H407.559V53.8501H377.878Z" fill="#FCFCFC"/>
<path d="M445.948 40.8116C449.355 39.8288 452.042 38.1253 453.876 35.6355C455.711 33.1458 456.694 30.1318 456.694 26.4627C456.694 21.6798 455.056 17.8796 451.78 15.1278C448.504 12.3759 443.983 11 438.217 11H421.772V14.0139H438.217C443.066 14.0139 446.8 15.1278 449.421 17.2899C451.976 19.4521 453.287 22.5315 453.287 26.4627C453.287 30.4594 451.976 33.5389 449.421 35.701C446.8 37.8632 443.066 38.9115 438.217 38.9115H421.772V56.864H425.113V41.8599H438.217C439.527 41.8599 441.034 41.7944 442.672 41.5323L453.614 56.864H457.414L445.948 40.8116Z" fill="#FCFCFC"/>
<path d="M482.505 41.0737L500.981 11H497.509L480.932 37.9942L464.355 11H460.686L479.163 41.0737V56.864H482.505V41.0737Z" fill="#FCFCFC"/>
<mask id="path-27-inside-1_1_31" fill="white">
<path fill-rule="evenodd" clip-rule="evenodd" d="M49.8989 20.9072C49.3471 21.0255 48.7746 21.0877 48.1875 21.0877C43.7002 21.0877 40.0625 17.4501 40.0625 12.9627C40.0625 11.3702 40.5206 9.88476 41.3123 8.6309C39.5974 8.27485 37.8205 8.08774 36 8.08774C21.6406 8.08774 10 19.7283 10 34.0877C10 48.4471 21.6406 60.0877 36 60.0877C50.1557 60.0877 61.6691 48.7751 61.993 34.6973C61.4757 34.8298 60.9336 34.9002 60.375 34.9002C56.7851 34.9002 53.875 31.9901 53.875 28.4002C53.875 28.0516 53.9025 27.7093 53.9553 27.3755C51.5648 26.7024 49.8125 24.506 49.8125 21.9002C49.8125 21.5615 49.8421 21.2297 49.8989 20.9072Z"/>
</mask>
<path d="M49.8989 20.9072L52.8534 21.4275L53.6261 17.0399L49.27 17.9738L49.8989 20.9072ZM41.3123 8.6309L43.849 10.2325L46.1595 6.57325L41.9222 5.69353L41.3123 8.6309ZM61.993 34.6973L64.9922 34.7663L65.0832 30.8087L61.2485 31.7911L61.993 34.6973ZM53.9553 27.3755L56.9184 27.8447L57.3356 25.2106L54.7684 24.4877L53.9553 27.3755ZM48.1875 24.0877C48.9873 24.0877 49.7706 24.0029 50.5278 23.8405L49.27 17.9738C48.9237 18.0481 48.5619 18.0877 48.1875 18.0877V24.0877ZM37.0625 12.9627C37.0625 19.1069 42.0433 24.0877 48.1875 24.0877V18.0877C45.357 18.0877 43.0625 15.7932 43.0625 12.9627H37.0625ZM38.7757 7.02925C37.6902 8.74837 37.0625 10.7868 37.0625 12.9627H43.0625C43.0625 11.9537 43.3511 11.0212 43.849 10.2325L38.7757 7.02925ZM36 11.0877C37.6145 11.0877 39.187 11.2536 40.7025 11.5683L41.9222 5.69353C40.0078 5.29608 38.0266 5.08774 36 5.08774V11.0877ZM13 34.0877C13 21.3852 23.2975 11.0877 36 11.0877V5.08774C19.9837 5.08774 7 18.0715 7 34.0877H13ZM36 57.0877C23.2975 57.0877 13 46.7903 13 34.0877H7C7 50.104 19.9837 63.0877 36 63.0877V57.0877ZM58.9938 34.6283C58.7073 47.0803 48.5219 57.0877 36 57.0877V63.0877C51.7894 63.0877 64.631 50.4699 64.9922 34.7663L58.9938 34.6283ZM60.375 37.9002C61.1868 37.9002 61.979 37.7977 62.7375 37.6034L61.2485 31.7911C60.9724 31.8618 60.6804 31.9002 60.375 31.9002V37.9002ZM50.875 28.4002C50.875 33.6469 55.1283 37.9002 60.375 37.9002V31.9002C58.442 31.9002 56.875 30.3332 56.875 28.4002H50.875ZM50.9923 26.9062C50.9149 27.3947 50.875 27.8938 50.875 28.4002H56.875C56.875 28.2093 56.89 28.0239 56.9184 27.8447L50.9923 26.9062ZM54.7684 24.4877C53.6373 24.1693 52.8125 23.1272 52.8125 21.9002H46.8125C46.8125 25.8847 49.4924 29.2356 53.1423 30.2632L54.7684 24.4877ZM52.8125 21.9002C52.8125 21.7367 52.8268 21.5789 52.8534 21.4275L46.9444 20.3869C46.8575 20.8804 46.8125 21.3863 46.8125 21.9002H52.8125Z" fill="white" mask="url(#path-27-inside-1_1_31)"/>
<path d="M45.579 44.1298C45.579 43.4921 45.2887 42.6418 44.9114 42.1104C44.4471 41.4018 43.8956 41.1184 42.9669 40.9767C41.835 40.835 41.4867 40.9767 40.4419 41.9333C38.8166 43.3858 38.7876 44.4841 40.2968 46.2555C41.5157 47.708 42.7927 48.452 43.6925 48.1686C44.4761 47.9206 45.579 45.5469 45.579 44.1298Z" fill="white"/>
<path d="M31.8947 43.2545L30.7659 42.6383C30.142 42.3139 29.132 41.9896 28.5082 41.8923C27.5576 41.7625 27.2902 41.8598 26.8743 42.4761C26.2802 43.4167 26.2802 44.3897 26.8149 45.7844C27.3793 47.2439 28.2408 47.9899 29.5776 48.1845C31.36 48.4115 31.8947 47.7953 31.8947 45.2979V43.2545Z" fill="white"/>
<path d="M23.8681 29.2516C23.9574 28.529 23.8383 28.1399 23.4511 27.8064C23.1532 27.5563 22.4085 27.2784 21.8128 27.1672C20.8 26.9727 20.6511 27.056 19.3702 28.3344L19.3664 28.3382C18.0297 29.6685 18 29.6981 18 31.6416C18 34.1428 18.6255 35.0877 20.3234 35.0877C21.8426 35.0877 23.6894 34.0317 24.4043 32.8088L25 31.7806L24.3745 31.0024C23.9277 30.4466 23.8085 29.9463 23.8681 29.2516Z" fill="white"/>
<path d="M35.0274 27.2865C34.8036 26.6462 34.1323 25.9306 33.5355 25.6293C32.1927 24.9136 29.3207 24.9136 28.7612 25.5916C28.5374 25.8929 28.2391 26.9852 28.0899 28.0021C27.9034 29.8476 27.9034 29.9229 29.1342 30.6762C32.4538 32.7477 36.3702 30.4879 35.0274 27.2865Z" fill="white"/>
<path d="M45.386 30.4726C45.386 29.7112 42.7074 25.6064 42.001 25.2754C41.324 24.9774 40.6176 25.0436 40.0289 25.4078C39.499 25.7719 38.7926 28.9498 39.0575 29.7774C39.1753 30.0753 39.9994 30.6381 40.9119 31.0684C41.8244 31.4656 42.7074 31.9291 42.8546 32.0946C43.7082 32.9222 45.386 31.8629 45.386 30.4726Z" fill="white"/>
<circle cx="49.6842" cy="8.2807" r="2.2807" fill="white"/>
<circle cx="56.8895" cy="17.3982" r="2.1" fill="white"/>
<circle cx="60.6315" cy="27.7018" r="1.36842" fill="white"/>
</svg>
